# xmcd
#
# Track frame offsets:
#	150
#	11454
#	23964
#	36870
#	51869
#	66699
#	77995
#	90025
#	101242
#	114092
#	127089
#	139212
#	152422
#	163669
#	174918
#	188731
#	202134
#	213017
#	224795
#	237836
#	251528
#	265276
#	277082
#	288605
#	302817
#
# Disc length: 4243 seconds
#
# Revision: 2
# Processed by: cddbd v1.5.2PL0 Copyright (c) Steve Scherf et al.
# Submitted via: audiograbber 1.83.01
#
DISCID=73109119
DTITLE=Various Artist - Divas Of Motown 2
DYEAR=1900
DGENRE=Motown
TTITLE0=The Marvelettes - Please Mr Postman
TTITLE1=The Supremes - You Can't Hurry Love
TTITLE2=Martha and The Vandellas - Jimmy Mack
TTITLE3=Diana Ross - Remember Me
TTITLE4=Brenda Holloway - Operator
TTITLE5=Chris Clark - Do I Love You (Indeed I Do)
TTITLE6=Martha Reeves and The Vandellas - Dancing In The Street
TTITLE7=Gladys Knight and The Pips - Just Walk In My Shoes
TTITLE8=Mabel John - Actions Speak Louder Than Words
TTITLE9=The Velvelettes - A Bird In The Hand (Is Worth Two In The Bush)
TTITLE10=The Supremes - You Keep Me Hangin' On
TTITLE11=Brenda Holloway - You've Made Me So Very Happy
TTITLE12=Mary Wells - (I Guess There's) No Love
TTITLE13=The Marvelettes - Too Many Fish In The Sea
TTITLE14=Barbara Randolph - I Got A Feeling
TTITLE15=Martha Reeves and The Vandellas - Nowhere To Run
TTITLE16=Chris Clark - Got To Get You Into My Life
TTITLE17=Brenda Holloway - I'll Be Available
TTITLE18=The Marvelettes - Don't Make Hurting Me A Habit
TTITLE19=Carolyn Crawford - My Smile Is Just A Frown (Turned Upside Down)
TTITLE20=The Supremes - Nathan Jones
TTITLE21=Kim Weston - Helpless
TTITLE22=Chris Clark - Whisper You Love Me Boy
TTITLE23=The Supremes - I'm Gonna Let My Heart Do The Walking
TTITLE24=Thelma Houston - Jumpin' Jack Flash
EXTD=
EXTT0=
EXTT1=
EXTT2=
EXTT3=
EXTT4=
EXTT5=
EXTT6=
EXTT7=
EXTT8=
EXTT9=
EXTT10=
EXTT11=
EXTT12=
EXTT13=
EXTT14=
EXTT15=
EXTT16=
EXTT17=
EXTT18=
EXTT19=
EXTT20=
EXTT21=
EXTT22=
EXTT23=
EXTT24=
PLAYORDER=
